<svg 
 xmlns="http://www.w3.org/2000/svg"
 xmlns:xlink="http://www.w3.org/1999/xlink"
 width="12px" height="14px">
<path fill-rule="evenodd"  fill="rgb(255, 255, 255)"
 d="M11.489,-0.000 L1.022,-0.000 C0.740,-0.000 0.511,0.232 0.511,0.518 L0.511,4.407 L-0.000,4.407 L-0.000,6.481 L0.511,6.481 L0.511,7.519 L-0.000,7.519 L-0.000,9.593 L0.511,9.593 L0.511,13.481 C0.511,13.768 0.740,14.000 1.022,14.000 L11.489,14.000 C11.771,14.000 12.000,13.768 12.000,13.481 L12.000,0.518 C12.000,0.232 11.771,-0.000 11.489,-0.000 ZM10.723,12.704 L1.788,12.704 L1.788,1.296 L10.723,1.296 L10.723,12.704 Z"/>
<path fill-rule="evenodd"  fill="rgb(255, 127, 134)"
 d="M3.750,9.852 C3.750,8.563 4.869,7.519 6.250,7.519 C7.631,7.519 8.750,8.563 8.750,9.852 L3.750,9.852 ZM6.250,7.000 C5.422,7.000 4.750,6.304 4.750,5.444 C4.750,4.585 5.422,3.889 6.250,3.889 C7.078,3.889 7.750,4.585 7.750,5.444 C7.750,6.304 7.078,7.000 6.250,7.000 Z"/>
</svg>