<svg 
 xmlns="http://www.w3.org/2000/svg"
 xmlns:xlink="http://www.w3.org/1999/xlink"
 width="13px" height="14px">
<path fill-rule="evenodd"  fill="rgb(255, 255, 255)"
 d="M12.244,2.969 L7.243,0.191 C7.017,0.066 6.759,-0.000 6.499,-0.000 C6.238,-0.000 5.981,0.066 5.754,0.192 L0.756,2.969 C0.290,3.227 0.000,3.712 0.000,4.235 L0.000,9.765 C0.000,10.288 0.290,10.773 0.756,11.031 L5.755,13.809 C5.981,13.934 6.238,14.000 6.499,14.000 C6.759,14.000 7.017,13.934 7.243,13.809 L12.242,11.031 C12.708,10.773 12.997,10.288 12.997,9.765 L12.997,4.235 C12.999,3.713 12.711,3.228 12.244,2.969 ZM1.334,4.235 C1.334,4.178 1.367,4.123 1.418,4.094 L6.418,1.316 C6.440,1.303 6.468,1.296 6.498,1.296 C6.527,1.296 6.555,1.304 6.582,1.318 L11.579,4.095 C11.632,4.125 11.664,4.179 11.664,4.236 L11.664,9.767 C11.664,9.824 11.632,9.879 11.580,9.908 L6.580,12.685 C6.558,12.697 6.529,12.704 6.500,12.704 C6.471,12.704 6.443,12.696 6.416,12.682 L1.419,9.907 C1.366,9.877 1.334,9.823 1.334,9.765 L1.334,4.235 Z"/>
<path fill-rule="evenodd"  fill="rgb(255, 127, 134)"
 d="M3.516,6.007 L5.831,7.307 L5.831,10.177 C5.831,10.535 6.130,10.825 6.498,10.825 C6.866,10.825 7.165,10.535 7.165,10.177 L7.165,7.333 L9.452,6.049 C9.771,5.871 9.881,5.473 9.698,5.163 C9.580,4.963 9.359,4.838 9.121,4.838 C9.004,4.838 8.889,4.868 8.788,4.925 L6.522,6.196 L4.183,4.883 C4.081,4.826 3.966,4.796 3.850,4.796 C3.612,4.796 3.390,4.921 3.271,5.121 C3.088,5.431 3.198,5.828 3.516,6.007 Z"/>
</svg>