<svg 
 xmlns="http://www.w3.org/2000/svg"
 xmlns:xlink="http://www.w3.org/1999/xlink"
 width="16.5px" height="14.5px">
<path fill-rule="evenodd"  stroke="rgb(255, 255, 255)" stroke-width="1px" stroke-linecap="butt" stroke-linejoin="miter" fill="none"
 d="M1.493,0.500 C0.944,0.501 0.500,0.993 0.500,1.600 L0.500,10.500 C0.500,11.107 0.889,11.499 1.438,11.500 L6.125,11.500 L8.000,13.500 L9.875,11.500 L14.563,11.500 C15.111,11.499 15.499,11.107 15.500,10.500 L15.500,1.600 C15.500,0.993 15.056,0.501 14.507,0.500 L1.493,0.500 Z"/>
<path fill-rule="evenodd"  fill="rgb(255, 127, 134)"
 d="M12.559,5.881 L12.559,5.913 C13.108,6.028 13.502,6.522 13.500,7.093 C13.476,7.490 13.299,7.861 13.007,8.124 C12.715,8.388 12.333,8.522 11.944,8.497 C11.911,8.495 11.878,8.492 11.846,8.488 C11.250,8.514 10.674,8.267 10.274,7.815 L10.713,7.212 C10.984,7.513 11.362,7.690 11.762,7.704 C12.239,7.704 12.563,7.465 12.563,7.036 C12.563,6.563 12.290,6.272 11.266,6.272 L11.266,5.588 C12.131,5.588 12.410,5.282 12.410,4.855 C12.421,4.685 12.357,4.519 12.235,4.402 C12.113,4.285 11.947,4.230 11.781,4.252 C11.440,4.274 11.121,4.427 10.887,4.681 L10.410,4.097 C10.791,3.726 11.295,3.515 11.821,3.507 C12.731,3.507 13.347,3.963 13.347,4.785 C13.350,5.287 13.030,5.733 12.559,5.881 ZM6.317,7.841 C7.594,6.674 8.351,5.773 8.351,5.033 C8.378,4.830 8.315,4.625 8.178,4.475 C8.042,4.325 7.846,4.245 7.646,4.257 C7.302,4.289 6.987,4.468 6.781,4.750 L6.272,4.231 C6.636,3.770 7.186,3.503 7.766,3.505 C8.131,3.477 8.492,3.597 8.770,3.841 C9.048,4.084 9.219,4.430 9.246,4.802 C9.251,4.863 9.252,4.925 9.248,4.986 C9.066,6.038 8.509,6.985 7.684,7.644 C7.920,7.618 8.230,7.591 8.447,7.591 L9.471,7.591 L9.471,8.395 L6.317,8.395 L6.317,7.841 ZM2.500,7.621 L3.511,7.621 L3.511,4.587 L2.658,4.587 L2.658,3.997 C3.044,3.935 3.415,3.799 3.751,3.595 L4.445,3.595 L4.445,7.621 L5.328,7.621 L5.328,8.391 L2.500,8.391 L2.500,7.621 Z"/>
</svg>