<svg 
 xmlns="http://www.w3.org/2000/svg"
 xmlns:xlink="http://www.w3.org/1999/xlink"
 width="15px" height="13px">
<path fill-rule="evenodd"  fill="rgb(255, 255, 255)"
 d="M14.411,4.446 C14.032,3.578 13.492,2.799 12.803,2.132 C12.115,1.464 11.314,0.939 10.420,0.572 C9.494,0.191 8.513,-0.001 7.500,-0.001 C6.487,-0.001 5.506,0.191 4.580,0.572 C3.686,0.939 2.884,1.464 2.196,2.132 C1.508,2.799 0.968,3.578 0.589,4.446 C0.198,5.344 -0.000,6.297 -0.000,7.279 C-0.000,9.436 0.976,11.467 2.677,12.855 L2.705,12.878 C2.802,12.956 2.925,13.000 3.050,13.000 L11.951,13.000 C12.077,13.000 12.199,12.956 12.296,12.878 L12.325,12.855 C14.024,11.467 15.000,9.436 15.000,7.279 C15.000,6.297 14.801,5.344 14.411,4.446 L14.411,4.446 ZM11.675,11.765 L3.325,11.765 C2.017,10.619 1.272,8.996 1.272,7.279 C1.272,5.664 1.920,4.146 3.097,3.006 C4.274,1.863 5.838,1.234 7.500,1.234 C9.164,1.234 10.728,1.863 11.903,3.006 C13.080,4.148 13.728,5.666 13.728,7.279 C13.728,8.996 12.983,10.619 11.675,11.765 L11.675,11.765 Z"/>
<path fill-rule="evenodd"  fill="rgb(255, 127, 134)"
 d="M9.367,5.029 C9.315,4.979 9.229,4.979 9.177,5.029 L7.763,6.402 C7.450,6.321 7.103,6.399 6.857,6.638 C6.490,6.994 6.490,7.569 6.857,7.925 C7.224,8.281 7.816,8.281 8.183,7.925 C8.429,7.686 8.509,7.349 8.426,7.046 L9.840,5.673 C9.892,5.622 9.892,5.539 9.840,5.489 L9.367,5.029 ZM7.132,3.380 L7.868,3.380 C7.942,3.380 8.002,3.321 8.002,3.249 L8.002,1.950 C8.002,1.878 7.942,1.819 7.868,1.819 L7.132,1.819 C7.058,1.819 6.998,1.878 6.998,1.950 L6.998,3.249 C6.998,3.321 7.058,3.380 7.132,3.380 L7.132,3.380 ZM11.484,6.922 L11.484,7.637 C11.484,7.708 11.545,7.767 11.618,7.767 L12.958,7.767 C13.031,7.767 13.092,7.708 13.092,7.637 L13.092,6.922 C13.092,6.851 13.031,6.792 12.958,6.792 L11.618,6.792 C11.545,6.792 11.484,6.851 11.484,6.922 L11.484,6.922 ZM11.697,3.718 L11.176,3.212 C11.124,3.162 11.039,3.162 10.987,3.212 L10.040,4.132 C9.988,4.182 9.988,4.265 10.040,4.316 L10.560,4.821 C10.612,4.871 10.697,4.871 10.749,4.821 L11.697,3.901 C11.749,3.851 11.749,3.768 11.697,3.718 L11.697,3.718 ZM4.019,3.212 C3.968,3.162 3.882,3.162 3.830,3.212 L3.310,3.718 C3.258,3.768 3.258,3.851 3.310,3.901 L4.257,4.821 C4.309,4.871 4.394,4.871 4.446,4.821 L4.967,4.316 C5.019,4.265 5.019,4.182 4.967,4.132 L4.019,3.212 ZM3.315,6.792 L1.975,6.792 C1.902,6.792 1.841,6.851 1.841,6.922 L1.841,7.637 C1.841,7.708 1.902,7.767 1.975,7.767 L3.315,7.767 C3.388,7.767 3.449,7.708 3.449,7.637 L3.449,6.922 C3.449,6.851 3.388,6.792 3.315,6.792 L3.315,6.792 Z"/>
</svg>