<svg 
 xmlns="http://www.w3.org/2000/svg"
 xmlns:xlink="http://www.w3.org/1999/xlink"
 width="14px" height="13px">
<path fill-rule="evenodd"  fill="rgb(255, 255, 255)"
 d="M0.517,0.795 C0.224,0.812 -0.009,1.056 -0.009,1.354 L-0.009,3.661 C-0.009,4.088 0.075,4.503 0.243,4.894 C0.319,5.073 0.411,5.241 0.517,5.400 L0.517,12.444 C0.517,12.753 0.767,13.005 1.077,13.005 L12.920,13.005 C13.230,13.005 13.481,12.754 13.481,12.444 L13.481,5.400 C13.587,5.241 13.679,5.071 13.754,4.894 C13.920,4.503 14.006,4.088 14.006,3.661 L14.006,1.354 C14.006,1.056 13.773,0.812 13.481,0.795 L13.481,0.795 L12.219,0.793 L1.778,0.793 L0.517,0.795 ZM1.778,11.745 L1.778,6.502 C1.829,6.527 1.881,6.551 1.936,6.572 C2.326,6.737 2.742,6.819 3.169,6.819 C3.596,6.819 4.010,6.737 4.402,6.572 C4.644,6.471 4.872,6.341 5.080,6.185 C5.084,6.183 5.087,6.183 5.091,6.185 C5.299,6.341 5.525,6.471 5.769,6.572 C6.159,6.737 6.575,6.819 7.002,6.819 C7.430,6.819 7.843,6.737 8.235,6.572 C8.477,6.471 8.705,6.341 8.913,6.185 C8.917,6.183 8.920,6.183 8.924,6.185 C9.132,6.341 9.358,6.471 9.602,6.572 C9.993,6.737 10.408,6.819 10.835,6.819 C11.263,6.819 11.676,6.737 12.069,6.572 C12.121,6.550 12.174,6.527 12.226,6.502 L12.226,11.745 L12.219,11.745 L1.778,11.745 ZM12.745,3.661 C12.745,4.708 11.886,5.558 10.830,5.558 C10.115,5.558 9.492,5.171 9.162,4.596 C9.111,4.509 9.020,4.454 8.919,4.454 L8.908,4.454 C8.808,4.454 8.715,4.509 8.665,4.596 C8.337,5.171 7.713,5.558 6.999,5.558 C6.286,5.558 5.664,5.173 5.334,4.600 C5.282,4.510 5.187,4.454 5.084,4.454 C4.980,4.454 4.884,4.510 4.833,4.600 C4.502,5.173 3.880,5.558 3.167,5.558 C2.111,5.558 1.252,4.708 1.252,3.661 L1.252,2.063 C1.252,2.058 1.256,2.054 1.261,2.054 L12.736,2.054 C12.741,2.054 12.745,2.058 12.745,2.063 L12.745,3.661 Z"/>
<path fill-rule="evenodd"  fill="rgb(255, 127, 134)"
 d="M4.000,9.000 L10.000,9.000 L10.000,10.000 L4.000,10.000 L4.000,9.000 Z"/>
</svg>