<svg 
 xmlns="http://www.w3.org/2000/svg"
 xmlns:xlink="http://www.w3.org/1999/xlink"
 width="14.55px" height="12.55px">
<path fill-rule="evenodd"  fill="rgb(255, 255, 255)"
 d="M13.500,1.000 L11.000,1.000 L11.000,0.125 C11.000,0.056 10.944,-0.000 10.875,-0.000 L10.000,-0.000 C9.931,-0.000 9.875,0.056 9.875,0.125 L9.875,1.000 L7.562,1.000 L7.562,0.125 C7.562,0.056 7.506,-0.000 7.437,-0.000 L6.562,-0.000 C6.494,-0.000 6.438,0.056 6.438,0.125 L6.438,1.000 L4.125,1.000 L4.125,0.125 C4.125,0.056 4.069,-0.000 4.000,-0.000 L3.125,-0.000 C3.056,-0.000 3.000,0.056 3.000,0.125 L3.000,1.000 L0.500,1.000 C0.223,1.000 -0.000,1.223 -0.000,1.500 L-0.000,11.500 C-0.000,11.777 0.223,12.000 0.500,12.000 L13.500,12.000 C13.776,12.000 14.000,11.777 14.000,11.500 L14.000,1.500 C14.000,1.223 13.776,1.000 13.500,1.000 L13.500,1.000 ZM12.875,10.875 L1.125,10.875 L1.125,2.125 L3.000,2.125 L3.000,3.000 C3.000,3.069 3.056,3.125 3.125,3.125 L4.000,3.125 C4.069,3.125 4.125,3.069 4.125,3.000 L4.125,2.125 L6.438,2.125 L6.438,3.000 C6.438,3.069 6.494,3.125 6.562,3.125 L7.437,3.125 C7.506,3.125 7.562,3.069 7.562,3.000 L7.562,2.125 L9.875,2.125 L9.875,3.000 C9.875,3.069 9.931,3.125 10.000,3.125 L10.875,3.125 C10.944,3.125 11.000,3.069 11.000,3.000 L11.000,2.125 L12.875,2.125 L12.875,10.875 Z"/>
<path fill-rule="evenodd"  stroke="rgb(255, 127, 134)" stroke-width="1.1px" stroke-linecap="butt" stroke-linejoin="miter" fill="none"
 d="M4.700,6.334 L6.233,7.668 L9.300,5.000 "/>
</svg>