<svg 
 xmlns="http://www.w3.org/2000/svg"
 xmlns:xlink="http://www.w3.org/1999/xlink"
 width="14.55px" height="12.55px">
<path fill-rule="evenodd"  fill="rgb(255, 255, 255)"
 d="M13.500,0.999 L11.000,0.999 L11.000,0.124 C11.000,0.056 10.944,-0.001 10.875,-0.001 L10.000,-0.001 C9.931,-0.001 9.875,0.056 9.875,0.124 L9.875,0.999 L7.562,0.999 L7.562,0.124 C7.562,0.056 7.506,-0.001 7.437,-0.001 L6.562,-0.001 C6.494,-0.001 6.438,0.056 6.438,0.124 L6.438,0.999 L4.125,0.999 L4.125,0.124 C4.125,0.056 4.069,-0.001 4.000,-0.001 L3.125,-0.001 C3.056,-0.001 3.000,0.056 3.000,0.124 L3.000,0.999 L0.500,0.999 C0.223,0.999 -0.000,1.223 -0.000,1.499 L-0.000,11.500 C-0.000,11.776 0.223,12.000 0.500,12.000 L13.500,12.000 C13.776,12.000 14.000,11.776 14.000,11.500 L14.000,1.499 C14.000,1.223 13.776,0.999 13.500,0.999 L13.500,0.999 ZM12.875,10.874 L1.125,10.874 L1.125,2.124 L3.000,2.124 L3.000,2.999 C3.000,3.068 3.056,3.124 3.125,3.124 L4.000,3.124 C4.069,3.124 4.125,3.068 4.125,2.999 L4.125,2.124 L6.438,2.124 L6.438,2.999 C6.438,3.068 6.494,3.124 6.562,3.124 L7.437,3.124 C7.506,3.124 7.562,3.068 7.562,2.999 L7.562,2.124 L9.875,2.124 L9.875,2.999 C9.875,3.068 9.931,3.124 10.000,3.124 L10.875,3.124 C10.944,3.124 11.000,3.068 11.000,2.999 L11.000,2.124 L12.875,2.124 L12.875,10.874 Z"/>
<path fill-rule="evenodd"  stroke="rgb(255, 127, 134)" stroke-width="1.1px" stroke-linecap="butt" stroke-linejoin="miter" fill="none"
 d="M4.700,6.333 L6.233,7.667 L9.300,4.999 "/>
</svg>