<?xml version="1.0" encoding="UTF-8"?>
<svg width="16px" height="16px" viewBox="0 0 16 16" version="1.1" xmlns="http://www.w3.org/2000/svg" xmlns:xlink="http://www.w3.org/1999/xlink">
    <title>icon_robot</title>
    <g id="页面-1" stroke="none" stroke-width="1" fill="none" fill-rule="evenodd">
        <g id="robot">
            <rect id="矩形" x="0" y="0" width="16" height="16"></rect>
            <path d="M10,4 C12.7614237,4 15,6.23857625 15,9 C15,11.7614237 12.7614237,14 10,14 L6,14 C3.23857625,14 1,11.7614237 1,9 C1,6.23857625 3.23857625,4 6,4 L10,4 Z M10,5 L6,5 C3.790861,5 2,6.790861 2,9 C2,11.1421954 3.68396847,12.8910789 5.80035966,12.9951047 L6,13 L10,13 C12.209139,13 14,11.209139 14,9 C14,6.85780461 12.3160315,5.10892112 10.1996403,5.00489531 L10,5 Z" id="矩形" fill="#FFFFFF" fill-rule="nonzero"></path>
            <path d="M1.5,7 L2,7 L2,7 L2,11 L1.5,11 C0.671572875,11 1.01453063e-16,10.3284271 0,9.5 L0,8.5 C-1.01453063e-16,7.67157288 0.671572875,7 1.5,7 Z" id="矩形" fill="#FFFFFF"></path>
            <path d="M15.5,7 L16,7 L16,7 L16,11 L15.5,11 C14.6715729,11 14,10.3284271 14,9.5 L14,8.5 C14,7.67157288 14.6715729,7 15.5,7 Z" id="矩形备份-43" fill="#FFFFFF" transform="translate(15.000000, 9.000000) scale(-1, 1) translate(-15.000000, -9.000000) "></path>
            <rect id="矩形" fill="#E67E85" x="5" y="8" width="1.5" height="2" rx="0.75"></rect>
            <rect id="矩形备份-44" fill="#E67E85" x="9.5" y="8" width="1.5" height="2" rx="0.75"></rect>
            <g id="flash" transform="translate(5.000000, 0.000000)" fill-rule="nonzero">
                <rect id="矩形" fill="#000000" opacity="0" x="0" y="0" width="5" height="5"></rect>
                <path d="M2.77754199,5 C2.74855876,5 2.71980227,4.99535457 2.69255803,4.98636349 C2.58440117,4.95035584 2.51730777,4.85180932 2.5300887,4.74772918 L2.72255237,3.13637935 L1.25033026,3.13637935 C1.15779487,3.13650625 1.07275388,3.09013868 1.02928933,3.01585947 C0.985824775,2.94158026 0.991049438,2.85154486 1.04286942,2.78183694 L3.01499717,0.100041741 C3.07917158,0.0136926535 3.19971308,-0.0219048774 3.30744197,0.0136788463 C3.41079508,0.0485672848 3.47680405,0.140904165 3.4699113,0.240949622 L3.27744763,1.86366299 L4.74966974,1.86366299 C4.84220513,1.86353609 4.92724612,1.90990367 4.97071067,1.98418287 C5.01417523,2.05846208 5.00895056,2.14849748 4.95713058,2.2182054 L2.98500283,4.9000006 C2.93844401,4.96263161 2.86068282,5.00011364 2.77754199,5 Z" id="路径" fill="#FFFFFF"></path>
            </g>
        </g>
    </g>
</svg>