<svg 
 xmlns="http://www.w3.org/2000/svg"
 xmlns:xlink="http://www.w3.org/1999/xlink"
 width="13px" height="14px">
<path fill-rule="evenodd"  fill="rgb(255, 255, 255)"
 d="M6.500,1.421 L11.587,4.280 L11.587,9.718 L6.500,12.577 L1.413,9.718 L1.413,4.280 L6.500,1.421 M6.500,0.000 C6.305,0.000 6.110,0.049 5.936,0.147 L0.566,3.165 C0.216,3.362 -0.000,3.727 -0.000,4.121 L-0.000,9.877 C-0.000,10.272 0.216,10.636 0.566,10.833 L5.936,13.851 C6.110,13.949 6.305,13.998 6.500,13.998 C6.695,13.998 6.890,13.949 7.064,13.851 L12.434,10.833 C12.784,10.636 13.000,10.272 13.000,9.877 L13.000,4.121 C13.000,3.727 12.784,3.362 12.434,3.165 L7.064,0.147 C6.890,0.049 6.695,0.000 6.500,0.000 L6.500,0.000 Z"/>
<path fill-rule="evenodd"  fill="rgb(255, 127, 134)"
 d="M6.500,5.345 C7.434,5.345 8.194,6.087 8.194,6.999 C8.194,7.911 7.434,8.653 6.500,8.653 C5.566,8.653 4.806,7.911 4.806,6.999 C4.806,6.087 5.566,5.345 6.500,5.345 M6.500,3.966 C4.784,3.966 3.393,5.324 3.393,6.999 C3.393,8.674 4.784,10.032 6.500,10.032 C8.216,10.032 9.607,8.674 9.607,6.999 C9.607,5.324 8.216,3.966 6.500,3.966 L6.500,3.966 Z"/>
</svg>